<?xml version="1.0" encoding="UTF-8"?>
<svg width="18" height="18" viewBox="0 0 18 18" xmlns="http://www.w3.org/2000/svg">
    <g fill="none" fill-rule="evenodd">
        <rect width="18" height="18" fill="#0A66C2" rx="2"/>
        <path d="M4.98 7.197h1.87V14H4.98V7.197zM5.915 4C6.56 4 7 4.447 7 5.01c0 .558-.436 1.01-1.085 1.01-.643 0-1.085-.452-1.085-1.01C4.83 4.447 5.272 4 5.915 4M8.728 7.197h1.794v.824h.025c.25-.473.86-.973 1.77-.973 1.892 0 2.24 1.246 2.24 2.867V14h-1.87v-3.583c0-.698-.013-1.595-.97-1.595-.972 0-1.12.76-1.12 1.544V14H8.728V7.197z" fill="#FFF"/>
    </g>
</svg> 